<svg width="80" height="80" viewBox="0 0 80 80" fill="none" xmlns="http://www.w3.org/2000/svg">
<path d="M4.20017 57.843C1.56242 52.5507 0.130865 46.7393 0.00855727 40.8274C-0.113751 34.9154 1.07623 29.0498 3.49284 23.6529C5.90945 18.256 9.49257 13.462 13.9843 9.6161C18.4759 5.77016 23.7645 2.96793 29.4691 1.41114C35.1737 -0.145656 41.1526 -0.418289 46.9752 0.612868C52.7979 1.64403 58.3195 3.95332 63.1425 7.37451C67.9656 10.7957 71.9702 15.2437 74.8679 20.3982C77.7657 25.5528 79.4845 31.2857 79.9008 37.1843L69.9256 37.8882C69.6134 33.4643 68.3242 29.1646 66.1509 25.2987C63.9776 21.4328 60.9742 18.0968 57.3569 15.5309C53.7396 12.965 49.5984 11.233 45.2314 10.4597C40.8644 9.68628 36.3803 9.89076 32.1018 11.0584C27.8233 12.226 23.857 14.3276 20.4882 17.2121C17.1194 20.0965 14.4321 23.692 12.6196 27.7397C10.8072 31.7874 9.91469 36.1865 10.0064 40.6205C10.0981 45.0545 11.1718 49.413 13.1501 53.3822L4.20017 57.843Z" fill="white"/>
<path d="M74.6806 59.9312C69.3946 69.1291 60.6711 75.8503 50.4294 78.6164C40.1877 81.3825 29.2667 79.9667 20.0688 74.6807L25.0076 66.087C31.9263 70.0632 40.1412 71.1282 47.8451 69.0475C55.549 66.9669 62.1108 61.9111 66.087 54.9924L74.6806 59.9312Z" fill="white"/>
<path d="M62.4812 25.6575C65.7994 30.8587 67.2115 37.0495 66.477 43.1751C65.7424 49.3006 62.9066 54.982 58.4527 59.2512C53.9989 63.5203 48.2025 66.1131 42.0513 66.5877C35.9001 67.0623 29.7747 65.3893 24.7187 61.8539C19.6627 58.3185 15.9889 53.1394 14.3234 47.1989C12.6579 41.2585 13.1037 34.9244 15.5848 29.2758C18.0659 23.6272 22.4288 19.0137 27.9301 16.2212C33.4315 13.4288 39.7308 12.6303 45.7549 13.9617L43.7407 23.0751C39.825 22.2097 35.7304 22.7287 32.1546 24.5438C28.5787 26.3589 25.7428 29.3577 24.1301 33.0293C22.5174 36.7009 22.2276 40.8181 23.3102 44.6793C24.3928 48.5406 26.7807 51.907 30.0671 54.205C33.3535 56.5031 37.3351 57.5905 41.3334 57.282C45.3316 56.9735 49.0993 55.2882 51.9943 52.5133C54.8893 49.7383 56.7325 46.0454 57.21 42.0638C57.6875 38.0822 56.7696 34.0581 54.6128 30.6774L62.4812 25.6575Z" fill="white"/>
<circle cx="40.2666" cy="39.7333" r="14.6667" fill="white"/>
</svg>
